Coordinates
version=1
nRows=15
nColumns=46
inDegrees=yes

Units are S.I. units (second, meters, Newtons, ...)
Angles are in degrees.

endheader
time	pelvis_tilt	pelvis_list	pelvis_rotation	pelvis_tx	pelvis_ty	pelvis_tz	bb_angle	bb_tx	bb_ty	bb_tz	hip_flexion_r	hip_adduction_r	hip_rotation_r	knee_angle_r	knee_angle_r_beta	ankle_angle_r	subtalar_angle_r	mtp_angle_r	crank_angle_r	hip_flexion_l	hip_adduction_l	hip_rotation_l	knee_angle_l	knee_angle_l_beta	ankle_angle_l	subtalar_angle_l	mtp_angle_l	crank_angle_l	lumbar_extension	lumbar_bending	lumbar_rotation	arm_flex_r	arm_add_r	arm_rot_r	elbow_flex_r	pro_sup_r	wrist_flex_r	wrist_dev_r	arm_flex_l	arm_add_l	arm_rot_l	elbow_flex_l	pro_sup_l	wrist_flex_l	wrist_dev_l
      2.50500000	    -16.78754390	      3.72977930	      6.82967721	      0.11298125	      1.10393057	     -0.23183917	      0.00000000	      0.50000000	      0.00000000	      0.25000000	     47.57432632	    -11.03688982	     -9.36465359	     32.50597884	      0.56733636	    -24.88105656	     -8.98329729	      0.00000000	      0.00000000	     88.38918008	     -1.80815398	      2.03067119	    113.14623348	      1.97477431	      3.73535379	     -4.68374027	      0.00000000	      0.00000000	    -57.85710805	     -0.66471056	     -7.07065824	     89.76615883	     -5.22444633	     29.86874529	     35.72156370	     21.71778317	      0.00000000	      0.00000000	     89.78536770	     -6.71092555	     32.54581948	     43.34040261	     23.03518821	      0.00000000	      0.00000000
      2.51000000	    -16.96588421	      4.08133820	      6.85859570	      0.11254826	      1.10459436	     -0.23053373	      0.00000000	      0.50000000	      0.00000000	      0.25000000	     47.04503946	    -11.35820817	     -9.63152370	     31.90141689	      0.55678476	    -25.98847716	     -8.33135931	      0.00000000	      0.00000000	     89.45554749	     -1.72146091	      1.73783945	    113.23535462	      1.97632977	      3.88105114	     -4.61569579	      0.00000000	      0.00000000	    -57.80925119	     -0.96483634	     -7.05365038	     89.76826297	     -5.54672642	     29.82968646	     35.76783404	     21.71805266	      0.00000000	      0.00000000	     89.78351774	     -6.46854243	     32.42695739	     43.48056635	     23.01682211	      0.00000000	      0.00000000
      2.51500000	    -17.09686251	      4.37751111	      6.86613216	      0.11204312	      1.10522662	     -0.22918119	      0.00000000	      0.50000000	      0.00000000	      0.25000000	     46.56319274	    -11.61616248	     -9.92788267	     31.48680612	      0.54954844	    -27.04350352	     -7.89438651	      0.00000000	      0.00000000	     90.44184878	     -1.66249950	      1.50452318	    113.22749591	      1.97619261	      3.98969638	     -4.54255570	      0.00000000	      0.00000000	    -57.80320200	     -1.26974987	     -7.02986638	     89.76801438	     -5.86976835	     29.77350243	     35.82547124	     21.72219047	      0.00000000	      0.00000000	     89.78202826	     -6.28805585	     32.31691588	     43.63082146	     23.01660184	      0.00000000	      0.00000000
      2.52000000	    -17.25399653	      4.63491012	      6.91477145	      0.11135782	      1.10585367	     -0.22794680	      0.00000000	      0.50000000	      0.00000000	      0.25000000	     46.16454306	    -11.84595355	    -10.12394122	     31.17523483	      0.54411049	    -28.15401079	     -7.68871028	      0.00000000	      0.00000000	     91.39428688	     -1.51815206	      1.32437435	    113.07187204	      1.97347646	      4.11140391	     -4.44537165	      0.00000000	      0.00000000	    -57.79747973	     -1.47726504	     -6.95523240	     89.76992353	     -6.20735085	     29.72209076	     35.99218464	     21.74608859	      0.00000000	      0.00000000	     89.77940569	     -6.03797720	     32.13810564	     43.83540686	     23.01968407	      0.00000000	      0.00000000
      2.52500000	    -17.38679430	      4.86039404	      6.94261101	      0.11060612	      1.10644876	     -0.22669140	      0.00000000	      0.50000000	      0.00000000	      0.25000000	     45.83270509	    -12.01950775	    -10.26850994	     31.04810896	      0.54189173	    -29.11680200	     -7.70085278	      0.00000000	      0.00000000	     92.26878978	     -1.39201447	      1.17314263	    112.81581061	      1.96900734	      4.02492931	     -4.37271229	      0.00000000	      0.00000000	    -57.82593940	     -1.71333611	     -6.91610797	     89.77009556	     -6.56215474	     29.65532653	     36.20352558	     21.77821198	      0.00000000	      0.00000000	     89.77655378	     -5.87877903	     31.90828546	     44.07595149	     23.02864642	      0.00000000	      0.00000000
      2.53000000	    -17.53642369	      5.07510543	      6.98602825	      0.10975493	      1.10696698	     -0.22564408	      0.00000000	      0.50000000	      0.00000000	      0.25000000	     45.65004640	    -12.20558443	    -10.35506290	     31.17632077	      0.54412945	    -30.05927826	     -7.95071482	      0.00000000	      0.00000000	     93.07784337	     -1.21430824	      0.99112425	    112.43434250	      1.96234947	      4.14742502	     -4.49791536	      0.00000000	      0.00000000	    -57.84017331	     -1.88567946	     -6.91288857	     89.77019728	     -6.84280771	     29.58675802	     36.48609840	     21.82294823	      0.00000000	      0.00000000	     89.77350222	     -5.68026059	     31.64484498	     44.34162807	     23.03839447	      0.00000000	      0.00000000
      2.53500000	    -17.73509971	      5.27616030	      7.06708765	      0.10885347	      1.10740321	     -0.22468148	      0.00000000	      0.50000000	      0.00000000	      0.25000000	     45.62737876	    -12.39390982	    -10.39541840	     31.55253532	      0.55069563	    -30.86007347	     -8.51997025	      0.00000000	      0.00000000	     93.83731968	     -0.99522845	      0.80808099	    111.87939634	      1.95266383	      4.15699176	     -4.63448961	      0.00000000	      0.00000000	    -57.79528227	     -2.03323887	     -6.98164624	     89.76823653	     -7.08684432	     29.48790191	     36.81663197	     21.87443030	      0.00000000	      0.00000000	     89.77019463	     -5.52744946	     31.31501902	     44.61056955	     23.04049347	      0.00000000	      0.00000000
      2.54000000	    -17.89900451	      5.41126641	      7.13617068	      0.10788064	      1.10771796	     -0.22401983	      0.00000000	      0.50000000	      0.00000000	      0.25000000	     45.69910444	    -12.53263520	    -10.34063217	     32.18200025	      0.56168186	    -31.39375715	     -9.14536182	      0.00000000	      0.00000000	     94.45896383	     -0.75554931	      0.69646753	    111.28212079	      1.94223941	      4.44354903	     -4.85465071	      0.00000000	      0.00000000	    -57.76294963	     -2.11584003	     -7.04307619	     89.76989251	     -7.20457359	     29.38823045	     37.07494946	     21.91224421	      0.00000000	      0.00000000	     89.77048441	     -5.44866283	     31.02821497	     44.82225278	     23.03619137	      0.00000000	      0.00000000
      2.54500000	    -18.17787923	      5.57527537	      7.24070165	      0.10683035	      1.10790156	     -0.22351670	      0.00000000	      0.50000000	      0.00000000	      0.25000000	     46.02189362	    -12.69935770	    -10.07297708	     33.03933577	      0.57664519	    -31.94852788	    -10.04830873	      0.00000000	      0.00000000	     95.06453503	     -0.47192920	      0.48074251	    110.49862682	      1.92856486	      4.59545807	     -5.15709573	      0.00000000	      0.00000000	    -57.61447068	     -2.19609078	     -7.21397791	     89.76806276	     -7.22930322	     29.24990789	     37.39078745	     21.95125638	      0.00000000	      0.00000000	     89.76909814	     -5.37800802	     30.57393714	     45.10436516	     23.00780906	      0.00000000	      0.00000000
      2.55000000	    -18.34394898	      5.64504255	      7.34973017	      0.10579433	      1.10807474	     -0.22330337	      0.00000000	      0.50000000	      0.00000000	      0.25000000	     46.34000462	    -12.81681096	     -9.83533223	     34.13857412	      0.59583052	    -32.30152854	    -10.81113166	      0.00000000	      0.00000000	     95.43946348	     -0.10505975	      0.43152582	    109.69033291	      1.91445747	      5.23928647	     -5.19434399	      0.00000000	      0.00000000	    -57.53160109	     -2.17459996	     -7.29254402	     89.77164751	     -7.24467728	     29.12694370	     37.51047932	     21.95833183	      0.00000000	      0.00000000	     89.77100555	     -5.37083291	     30.37033872	     45.27336168	     22.99412340	      0.00000000	      0.00000000
      2.55500000	    -18.64200423	      5.80163913	      7.47754834	      0.10469735	      1.10819337	     -0.22311110	      0.00000000	      0.50000000	      0.00000000	      0.25000000	     46.93414901	    -12.97781524	     -9.32085294	     35.45239647	      0.61876105	    -32.70577597	    -11.84925118	      0.00000000	      0.00000000	     95.78441919	      0.29321328	      0.24410197	    108.66031320	      1.89648023	      5.73910404	     -5.40175028	      0.00000000	      0.00000000	    -57.34922047	     -2.23651331	     -7.48622164	     89.77319170	     -7.20514703	     28.86226413	     37.68670260	     21.95794451	      0.00000000	      0.00000000	     89.77238415	     -5.38601376	     30.09298078	     45.53178957	     22.95584125	      0.00000000	      0.00000000
      2.56000000	    -18.83922220	      5.92167358	      7.68015694	      0.10360816	      1.10839127	     -0.22322175	      0.00000000	      0.50000000	      0.00000000	      0.25000000	     47.51102547	    -13.16834792	     -8.83682262	     36.97391601	      0.64531657	    -32.94796234	    -12.85897487	      0.00000000	      0.00000000	     95.90822898	      0.82997733	      0.12827330	    107.54800585	      1.87706681	      6.40568236	     -5.75172366	      0.00000000	      0.00000000	    -57.24254828	     -2.16449082	     -7.64427005	     89.77587687	     -7.18425497	     28.61782811	     37.80246622	     21.94914196	      0.00000000	      0.00000000	     89.77458527	     -5.39351298	     29.97648100	     45.73856877	     22.93001118	      0.00000000	      0.00000000
      2.56500000	    -19.04754334	      6.03301660	      7.84340884	      0.10256148	      1.10858019	     -0.22338450	      0.00000000	      0.50000000	      0.00000000	      0.25000000	     48.19262008	    -13.30138775	     -8.22172355	     38.62364095	      0.67410970	    -33.25737605	    -13.93223981	      0.00000000	      0.00000000	     95.89007497	      1.40096117	      0.07640897	    106.26948621	      1.85475243	      7.15884535	     -5.95060343	      0.00000000	      0.00000000	    -57.13828881	     -2.13665317	     -7.89071017	     89.77727793	     -6.88637405	     27.63191428	     37.67761829	     23.01637344	      0.00000000	      0.00000000	     89.77492923	     -5.42277127	     29.64458442	     45.79223007	     23.97711005	      0.00000000	      0.00000000
      2.57000000	    -19.25497599	      6.20706135	      8.05637546	      0.10152363	      1.10877930	     -0.22359102	      0.00000000	      0.50000000	      0.00000000	      0.25000000	     48.97266432	    -13.50849302	     -7.49681407	     40.48846300	      0.70665699	    -33.28566712	    -14.82916350	      0.00000000	      0.00000000	     95.69564964	      1.97971202	     -0.06715432	    104.84280640	      1.82985217	      7.99292118	     -6.24625439	      0.00000000	      0.00000000	    -57.02951602	     -2.07106486	     -8.03952709	     89.77941027	     -6.86113318	     27.65525443	     38.05736908	     21.26475256	      0.00000000	      0.00000000	     89.77855024	     -5.60327163	     30.02337752	     46.54451976	     21.69139045	      0.00000000	      0.00000000
      2.57500000	    -19.45254127	      6.31395740	      8.22801899	      0.10051453	      1.10882428	     -0.22382980	      0.00000000	      0.50000000	      0.00000000	      0.25000000	     49.81390347	    -13.61554313	     -6.75703960	     42.46877206	      0.74121990	    -33.25634930	    -15.75280702	      0.00000000	      0.00000000	     95.36298688	      2.51469184	     -0.13748836	    103.28799446	      1.80271558	      8.89343963	     -6.65182089	      0.00000000	      0.00000000	    -56.89472360	     -2.02693984	     -8.19506482	     89.78099516	     -6.61918514	     26.71409302	     37.54239886	     24.00643062	      0.00000000	      0.00000000	     89.78071892	     -5.57157097	     29.65585890	     46.11559420	     24.62647608	      0.00000000	      0.00000000
